<svg width="180" height="19" viewBox="0 0 180 19" fill="none" xmlns="http://www.w3.org/2000/svg">
<path d="M0.699219 18C0.699219 18 0.699219 12.0898 0.699219 0.269531C0.699219 0.269531 2.16406 0.269531 5.09375 0.269531C6.30469 0.269531 7.25391 0.335938 7.94141 0.46875C8.63672 0.601562 9.25 0.835937 9.78125 1.17188C10.5 1.64062 11.0547 2.26953 11.4453 3.05859C11.8359 3.84766 12.0312 4.73828 12.0312 5.73047C12.0312 6.78516 11.8086 7.74219 11.3633 8.60156C10.9258 9.46094 10.3242 10.1055 9.55859 10.5352C9.07422 10.8008 8.5 10.9883 7.83594 11.0977C7.17188 11.207 6.24219 11.2617 5.04688 11.2617H3.99219V18H0.699219ZM3.99219 8.10938H4.95312C5.95312 8.10938 6.70312 8.03125 7.20312 7.875C7.67188 7.74219 8.03906 7.49219 8.30469 7.125C8.57812 6.75781 8.71484 6.32031 8.71484 5.8125C8.71484 5.25 8.57812 4.76953 8.30469 4.37109C8.03125 3.97266 7.65625 3.70703 7.17969 3.57422C6.71094 3.46484 6.01562 3.41016 5.09375 3.41016H3.99219V8.10938ZM26.9492 4.69922C26.9492 4.69922 26.9492 9.13281 26.9492 18C26.9492 18 25.9766 18 24.0312 18C24.0312 18 24.0312 17.4258 24.0312 16.2773C23.3906 17.0039 22.7266 17.5273 22.0391 17.8477C21.3594 18.1602 20.5508 18.3164 19.6133 18.3164C18.332 18.3164 17.1797 18.0234 16.1562 17.4375C15.1406 16.8438 14.3438 16.0195 13.7656 14.9648C13.1953 13.9102 12.9102 12.7227 12.9102 11.4023C12.9102 10.0664 13.1992 8.86719 13.7773 7.80469C14.3555 6.73438 15.1602 5.89844 16.1914 5.29688C17.2227 4.69531 18.3867 4.39453 19.6836 4.39453C20.6445 4.39453 21.4727 4.5625 22.168 4.89844C22.8633 5.22656 23.4844 5.75391 24.0312 6.48047V4.69922H26.9492ZM19.9648 7.32422C18.8555 7.32422 17.9375 7.71484 17.2109 8.49609C16.4922 9.27734 16.1328 10.2695 16.1328 11.4727C16.1328 12.6367 16.4961 13.582 17.2227 14.3086C17.957 15.0273 18.9062 15.3867 20.0703 15.3867C21.2266 15.3867 22.1562 15.0195 22.8594 14.2852C23.5703 13.5508 23.9258 12.5898 23.9258 11.4023C23.9258 10.1992 23.5547 9.21875 22.8125 8.46094C22.0781 7.70312 21.1289 7.32422 19.9648 7.32422ZM29.5508 18C29.5508 18 29.5508 13.5664 29.5508 4.69922C29.5508 4.69922 30.5234 4.69922 32.4688 4.69922C32.4688 4.69922 32.4688 5.13281 32.4688 6C32.8906 5.38281 33.3047 4.96094 33.7109 4.73438C34.1172 4.50781 34.6641 4.39453 35.3516 4.39453H35.5977C35.5977 4.39453 35.5977 5.41797 35.5977 7.46484C33.6914 7.51172 32.7383 8.55859 32.7383 10.6055C32.7383 10.6055 32.7383 13.0703 32.7383 18C32.7383 18 31.6758 18 29.5508 18ZM37.8008 18C37.8008 18 37.8008 14.5352 37.8008 7.60547C37.8008 7.60547 37.418 7.60547 36.6523 7.60547C36.6523 7.60547 36.6523 6.71875 36.6523 4.94531C36.6523 4.94531 37.0352 4.94531 37.8008 4.94531C37.8789 4.09375 38 3.43359 38.1641 2.96484C38.3281 2.49609 38.5859 2.06641 38.9375 1.67578C39.7578 0.738281 40.8438 0.269531 42.1953 0.269531C42.4688 0.269531 42.7344 0.285156 42.9922 0.316406V3.33984C42.9922 3.33984 42.8789 3.33984 42.6523 3.33984C42.043 3.33984 41.6172 3.45703 41.375 3.69141C41.1406 3.92578 41.0156 4.34375 41 4.94531H42.793C42.793 4.94531 42.793 5.83203 42.793 7.60547C42.793 7.60547 42.1953 7.60547 41 7.60547C41 7.60547 41 11.0703 41 18C41 18 39.9336 18 37.8008 18ZM56.3047 4.69922C56.3047 4.69922 56.3047 9.13281 56.3047 18C56.3047 18 55.3203 18 53.3516 18C53.3516 18 53.3516 17.5742 53.3516 16.7227C52.7422 17.3086 52.1523 17.7227 51.582 17.9648C51.0195 18.1992 50.3398 18.3164 49.543 18.3164C48.6445 18.3164 47.8398 18.1367 47.1289 17.7773C46.418 17.4102 45.8438 16.8906 45.4062 16.2188C45.0625 15.6797 44.8203 15.0859 44.6797 14.4375C44.5391 13.7891 44.4688 12.9219 44.4688 11.8359V4.69922H47.668V11.2031C47.668 12.125 47.7188 12.8477 47.8203 13.3711C47.9219 13.8867 48.0938 14.293 48.3359 14.5898C48.7969 15.1211 49.4141 15.3867 50.1875 15.3867C50.7422 15.3867 51.2344 15.2773 51.6641 15.0586C52.1016 14.832 52.4336 14.5156 52.6602 14.1094C52.832 13.8125 52.9492 13.4297 53.0117 12.9609C53.082 12.4844 53.1172 11.8203 53.1172 10.9688V4.69922H56.3047ZM58.8945 18C58.8945 18 58.8945 13.5664 58.8945 4.69922C58.8945 4.69922 59.8672 4.69922 61.8125 4.69922C61.8125 4.69922 61.8125 5.11719 61.8125 5.95312C62.2812 5.39062 62.7773 4.99219 63.3008 4.75781C63.832 4.51562 64.4883 4.39453 65.2695 4.39453C66.1992 4.39453 66.9688 4.55469 67.5781 4.875C68.1953 5.19531 68.7305 5.72266 69.1836 6.45703C69.7227 5.73828 70.332 5.21484 71.0117 4.88672C71.6914 4.55859 72.5 4.39453 73.4375 4.39453C74.4844 4.39453 75.4062 4.58984 76.2031 4.98047C77.0078 5.36328 77.6211 5.91016 78.043 6.62109C78.5664 7.54297 78.8281 8.77734 78.8281 10.3242V18H75.6406V10.6992C75.6406 10.0195 75.5898 9.47656 75.4883 9.07031C75.3867 8.66406 75.2227 8.33594 74.9961 8.08594C74.5586 7.57812 73.9414 7.32422 73.1445 7.32422C72.0742 7.32422 71.3164 7.76953 70.8711 8.66016C70.5977 9.21484 70.4609 10.1445 70.4609 11.4492V18H67.2617C67.2617 18 67.2617 15.5664 67.2617 10.6992C67.2617 9.46484 67.0625 8.60156 66.6641 8.10938C66.2109 7.58594 65.5547 7.32422 64.6953 7.32422C63.5625 7.32422 62.7969 7.80469 62.3984 8.76562C62.1875 9.28906 62.082 10.1836 62.082 11.4492C62.082 11.4492 62.082 13.6328 62.082 18C62.082 18 61.0195 18 58.8945 18ZM81.7695 18C81.7695 18 81.7695 12.0898 81.7695 0.269531C81.7695 0.269531 83.2344 0.269531 86.1641 0.269531C87.375 0.269531 88.3242 0.335938 89.0117 0.46875C89.707 0.601562 90.3203 0.835937 90.8516 1.17188C91.5703 1.64062 92.125 2.26953 92.5156 3.05859C92.9062 3.84766 93.1016 4.73828 93.1016 5.73047C93.1016 6.78516 92.8789 7.74219 92.4336 8.60156C91.9961 9.46094 91.3945 10.1055 90.6289 10.5352C90.1445 10.8008 89.5703 10.9883 88.9062 11.0977C88.2422 11.207 87.3125 11.2617 86.1172 11.2617H85.0625V18H81.7695ZM85.0625 8.10938H86.0234C87.0234 8.10938 87.7734 8.03125 88.2734 7.875C88.7422 7.74219 89.1094 7.49219 89.375 7.125C89.6484 6.75781 89.7852 6.32031 89.7852 5.8125C89.7852 5.25 89.6484 4.76953 89.375 4.37109C89.1016 3.97266 88.7266 3.70703 88.25 3.57422C87.7812 3.46484 87.0859 3.41016 86.1641 3.41016H85.0625V8.10938ZM108.02 4.69922C108.02 4.69922 108.02 9.13281 108.02 18C108.02 18 107.047 18 105.102 18C105.102 18 105.102 17.4258 105.102 16.2773C104.461 17.0039 103.797 17.5273 103.109 17.8477C102.43 18.1602 101.621 18.3164 100.684 18.3164C99.4023 18.3164 98.25 18.0234 97.2266 17.4375C96.2109 16.8438 95.4141 16.0195 94.8359 14.9648C94.2656 13.9102 93.9805 12.7227 93.9805 11.4023C93.9805 10.0664 94.2695 8.86719 94.8477 7.80469C95.4258 6.73438 96.2305 5.89844 97.2617 5.29688C98.293 4.69531 99.457 4.39453 100.754 4.39453C101.715 4.39453 102.543 4.5625 103.238 4.89844C103.934 5.22656 104.555 5.75391 105.102 6.48047V4.69922H108.02ZM101.035 7.32422C99.9258 7.32422 99.0078 7.71484 98.2812 8.49609C97.5625 9.27734 97.2031 10.2695 97.2031 11.4727C97.2031 12.6367 97.5664 13.582 98.293 14.3086C99.0273 15.0273 99.9766 15.3867 101.141 15.3867C102.297 15.3867 103.227 15.0195 103.93 14.2852C104.641 13.5508 104.996 12.5898 104.996 11.4023C104.996 10.1992 104.625 9.21875 103.883 8.46094C103.148 7.70312 102.199 7.32422 101.035 7.32422ZM110.621 18C110.621 18 110.621 13.5664 110.621 4.69922C110.621 4.69922 111.594 4.69922 113.539 4.69922C113.539 4.69922 113.539 5.13281 113.539 6C113.961 5.38281 114.375 4.96094 114.781 4.73438C115.188 4.50781 115.734 4.39453 116.422 4.39453H116.668C116.668 4.39453 116.668 5.41797 116.668 7.46484C114.762 7.51172 113.809 8.55859 113.809 10.6055C113.809 10.6055 113.809 13.0703 113.809 18C113.809 18 112.746 18 110.621 18ZM131.41 4.69922C131.41 4.69922 131.41 9.13281 131.41 18C131.41 18 130.438 18 128.492 18C128.492 18 128.492 17.4258 128.492 16.2773C127.852 17.0039 127.188 17.5273 126.5 17.8477C125.82 18.1602 125.012 18.3164 124.074 18.3164C122.793 18.3164 121.641 18.0234 120.617 17.4375C119.602 16.8438 118.805 16.0195 118.227 14.9648C117.656 13.9102 117.371 12.7227 117.371 11.4023C117.371 10.0664 117.66 8.86719 118.238 7.80469C118.816 6.73438 119.621 5.89844 120.652 5.29688C121.684 4.69531 122.848 4.39453 124.145 4.39453C125.105 4.39453 125.934 4.5625 126.629 4.89844C127.324 5.22656 127.945 5.75391 128.492 6.48047V4.69922H131.41ZM124.426 7.32422C123.316 7.32422 122.398 7.71484 121.672 8.49609C120.953 9.27734 120.594 10.2695 120.594 11.4727C120.594 12.6367 120.957 13.582 121.684 14.3086C122.418 15.0273 123.367 15.3867 124.531 15.3867C125.688 15.3867 126.617 15.0195 127.32 14.2852C128.031 13.5508 128.387 12.5898 128.387 11.4023C128.387 10.1992 128.016 9.21875 127.273 8.46094C126.539 7.70312 125.59 7.32422 124.426 7.32422ZM147.371 0.269531C147.371 0.269531 147.371 6.17969 147.371 18C147.371 18 146.395 18 144.441 18C144.441 18 144.441 17.4258 144.441 16.2773C143.793 16.9961 143.125 17.5156 142.438 17.8359C141.75 18.1562 140.957 18.3164 140.059 18.3164C138.816 18.3164 137.684 18.0117 136.66 17.4023C135.645 16.793 134.844 15.9531 134.258 14.8828C133.672 13.8125 133.379 12.6289 133.379 11.332C133.379 10.0273 133.672 8.82812 134.258 7.73438C134.852 6.64062 135.656 5.78125 136.672 5.15625C137.695 4.53125 138.816 4.21875 140.035 4.21875C140.871 4.21875 141.652 4.36719 142.379 4.66406C143.113 4.96094 143.715 5.36719 144.184 5.88281V0.269531H147.371ZM140.434 7.14844C139.355 7.14844 138.445 7.53906 137.703 8.32031C136.969 9.10156 136.602 10.0703 136.602 11.2266C136.602 12.3906 136.984 13.375 137.75 14.1797C138.523 14.9844 139.461 15.3867 140.562 15.3867C141.641 15.3867 142.551 14.9922 143.293 14.2031C144.043 13.4141 144.418 12.4492 144.418 11.3086C144.418 10.1055 144.043 9.11328 143.293 8.33203C142.543 7.54297 141.59 7.14844 140.434 7.14844ZM149.973 18C149.973 18 149.973 13.5664 149.973 4.69922C149.973 4.69922 151.035 4.69922 153.16 4.69922C153.16 4.69922 153.16 9.13281 153.16 18C153.16 18 152.098 18 149.973 18ZM149.973 3.26953C149.973 3.26953 149.973 2.26953 149.973 0.269531C149.973 0.269531 151.035 0.269531 153.16 0.269531C153.16 0.269531 153.16 1.26953 153.16 3.26953C153.16 3.26953 152.098 3.26953 149.973 3.26953ZM154.824 13.7812C154.824 13.7812 155.895 13.7812 158.035 13.7812C158.191 14.3438 158.41 14.7539 158.691 15.0117C158.973 15.2617 159.348 15.3867 159.816 15.3867C160.238 15.3867 160.582 15.2656 160.848 15.0234C161.121 14.7734 161.258 14.4609 161.258 14.0859C161.258 13.6484 161.055 13.3047 160.648 13.0547C160.477 12.9531 160.309 12.8672 160.145 12.7969C159.98 12.7266 159.598 12.5898 158.996 12.3867C157.668 11.9414 156.719 11.418 156.148 10.8164C155.586 10.2148 155.305 9.42578 155.305 8.44922C155.305 7.30859 155.727 6.34766 156.57 5.56641C157.422 4.78516 158.473 4.39453 159.723 4.39453C160.41 4.39453 161.059 4.53125 161.668 4.80469C162.285 5.07812 162.805 5.46094 163.227 5.95312C163.516 6.29688 163.723 6.65234 163.848 7.01953C163.98 7.38672 164.059 7.83984 164.082 8.37891H160.965C160.824 7.67578 160.41 7.32422 159.723 7.32422C159.379 7.32422 159.086 7.43359 158.844 7.65234C158.609 7.86328 158.492 8.12891 158.492 8.44922C158.492 8.85547 158.699 9.15234 159.113 9.33984C159.34 9.43359 159.887 9.61719 160.754 9.89062C162.098 10.3047 163.047 10.8047 163.602 11.3906C164.164 11.9766 164.445 12.7734 164.445 13.7812C164.445 15.0547 163.984 16.1289 163.062 17.0039C162.141 17.8789 161.016 18.3164 159.688 18.3164C158.867 18.3164 158.094 18.1445 157.367 17.8008C156.648 17.4492 156.078 16.9805 155.656 16.3945C155.406 16.0352 155.219 15.6641 155.094 15.2812C154.969 14.8984 154.879 14.3984 154.824 13.7812ZM179.41 12.7734C179.41 12.7734 175.977 12.7734 169.109 12.7734C169.305 13.5781 169.73 14.2148 170.387 14.6836C171.043 15.1523 171.844 15.3867 172.789 15.3867C173.445 15.3867 173.992 15.2891 174.43 15.0938C174.867 14.8906 175.293 14.5469 175.707 14.0625H179.188C179 14.6641 178.648 15.2812 178.133 15.9141C176.758 17.5156 175 18.3164 172.859 18.3164C171.859 18.3164 170.914 18.1367 170.023 17.7773C169.133 17.418 168.367 16.9336 167.727 16.3242C167.094 15.707 166.59 14.9727 166.215 14.1211C165.84 13.2617 165.652 12.3555 165.652 11.4023C165.652 10.1211 165.961 8.94531 166.578 7.875C167.203 6.79688 168.051 5.94922 169.121 5.33203C170.199 4.70703 171.379 4.39453 172.66 4.39453C173.965 4.39453 175.141 4.70312 176.188 5.32031C177.234 5.92969 178.051 6.78125 178.637 7.875C179.23 8.96094 179.527 10.1836 179.527 11.543C179.527 11.9805 179.488 12.3906 179.41 12.7734ZM169.016 9.96094H176.387C176.184 9.10938 175.766 8.45703 175.133 8.00391C174.5 7.55078 173.691 7.32422 172.707 7.32422C171.754 7.32422 170.961 7.55078 170.328 8.00391C169.703 8.44922 169.266 9.10156 169.016 9.96094Z" fill="#090B18"/>
</svg>
