<svg width="50" height="30" viewBox="0 0 50 30" fill="none" xmlns="http://www.w3.org/2000/svg">
<path fill-rule="evenodd" clip-rule="evenodd" d="M15 0C6.71573 0 0 6.71573 0 15C0 23.2843 6.71573 30 15 30C17.5584 30 19.9673 29.3595 22.0749 28.2301C23.8714 27.2674 26.1286 27.2674 27.9251 28.2301C30.0327 29.3595 32.4416 30 35 30C43.2843 30 50 23.2843 50 15C50 6.71573 43.2843 0 35 0C32.4416 0 30.0327 0.640519 27.9251 1.76995C26.1286 2.73264 23.8714 2.73264 22.0749 1.76995C19.9673 0.640519 17.5584 0 15 0Z" fill="#090B18"/>
</svg>
