<svg width="90" height="30" viewBox="0 0 90 30" fill="none" xmlns="http://www.w3.org/2000/svg">
<path fill-rule="evenodd" clip-rule="evenodd" d="M15 0C6.71573 0 0 6.71573 0 15C0 23.2843 6.71573 30 15 30C17.5584 30 19.9673 29.3595 22.0749 28.2301C23.8714 27.2674 26.1286 27.2674 27.9251 28.2301C30.0327 29.3595 32.4416 30 35 30C37.5584 30 39.9673 29.3595 42.0749 28.2301C43.8714 27.2674 46.1286 27.2674 47.9251 28.2301C50.0327 29.3595 52.4416 30 55 30C57.5584 30 59.9673 29.3595 62.0749 28.2301C63.8714 27.2674 66.1286 27.2674 67.9251 28.2301C70.0327 29.3595 72.4416 30 75 30C83.2843 30 90 23.2843 90 15C90 6.71573 83.2843 0 75 0C72.4416 0 70.0327 0.64052 67.9251 1.76995C66.1286 2.73264 63.8714 2.73264 62.0749 1.76995C59.9673 0.64052 57.5584 0 55 0C52.4416 0 50.0327 0.640519 47.9251 1.76995C46.1286 2.73264 43.8714 2.73264 42.0749 1.76995C39.9673 0.640519 37.5584 0 35 0C32.4416 0 30.0327 0.640519 27.9251 1.76995C26.1286 2.73264 23.8714 2.73264 22.0749 1.76995C19.9673 0.640519 17.5584 0 15 0Z" fill="#FF3A44"/>
</svg>
