<svg width="68" height="30" viewBox="0 0 68 30" fill="none" xmlns="http://www.w3.org/2000/svg">
<path fill-rule="evenodd" clip-rule="evenodd" d="M15 0C6.71573 0 0 6.71573 0 15C0 23.2843 6.71573 30 15 30C17.4317 30 19.7283 29.4214 21.7596 28.3942C23.4603 27.5342 25.5397 27.5342 27.2404 28.3942C29.2717 29.4214 31.5683 30 34 30C36.4317 30 38.7283 29.4214 40.7596 28.3942C42.4603 27.5342 44.5397 27.5342 46.2404 28.3942C48.2717 29.4214 50.5683 30 53 30C61.2843 30 68 23.2843 68 15C68 6.71573 61.2843 0 53 0C50.5683 0 48.2717 0.57865 46.2404 1.60577C44.5397 2.46578 42.4603 2.46578 40.7596 1.60577C38.7283 0.57865 36.4317 0 34 0C31.5683 0 29.2717 0.578649 27.2404 1.60577C25.5397 2.46578 23.4603 2.46578 21.7596 1.60577C19.7283 0.578649 17.4317 0 15 0Z" fill="#090B18"/>
</svg>
