<svg width="78" height="30" viewBox="0 0 78 30" fill="none" xmlns="http://www.w3.org/2000/svg">
<path fill-rule="evenodd" clip-rule="evenodd" d="M15 0C6.71573 0 0 6.71573 0 15C0 23.2843 6.71573 30 15 30C17.041 30 18.9867 29.5924 20.7603 28.8541C22.1852 28.261 23.8148 28.261 25.2397 28.8541C27.0133 29.5924 28.959 30 31 30C33.041 30 34.9867 29.5924 36.7603 28.8541C38.1852 28.261 39.8148 28.261 41.2397 28.8541C43.0133 29.5924 44.959 30 47 30C49.041 30 50.9867 29.5924 52.7603 28.8541C54.1852 28.261 55.8148 28.261 57.2397 28.8541C59.0133 29.5924 60.959 30 63 30C71.2843 30 78 23.2843 78 15C78 6.71573 71.2843 0 63 0C60.959 0 59.0133 0.407615 57.2397 1.14588C55.8148 1.73901 54.1852 1.73901 52.7603 1.14588C50.9867 0.407614 49.041 0 47 0C44.959 0 43.0133 0.407615 41.2397 1.14588C39.8148 1.73901 38.1852 1.73901 36.7603 1.14588C34.9867 0.407614 33.041 0 31 0C28.959 0 27.0133 0.407615 25.2397 1.14588C23.8148 1.73901 22.1852 1.73901 20.7603 1.14588C18.9867 0.407615 17.041 0 15 0Z" fill="#4789EB"/>
</svg>
